<svg width="311" height="29" viewBox="0 0 311 29" fill="none" xmlns="http://www.w3.org/2000/svg">
<path d="M14.12 21.7H14.51V22H5.39V21.7H5.78C6.3 21.7 6.74 21.52 7.1 21.16C7.48 20.78 7.68 20.33 7.7 19.81V2.23L4.85 2.35C2.97 2.43 2.03 3.13 2.03 4.45C2.03 4.99 2.21 5.45 2.57 5.83C2.95 6.19 3.47 6.37 4.13 6.37C4.19 6.37 4.25 6.37 4.31 6.37V6.55C3.91 6.69 3.57 6.76 3.29 6.76C2.39 6.76 1.7 6.44 1.22 5.8C0.88 5.36 0.71 4.86 0.71 4.3C0.71 3.42 1.06 2.7 1.76 2.14C2.44 1.56 3.5 1.22 4.94 1.12C5.2 1.1 6.04 1.06 7.46 0.999999C10.7 0.879999 13.05 0.679999 14.51 0.399999L14.57 0.699999C13.71 0.839999 13.1 1.13 12.74 1.57C12.4 2.01 12.22 2.66 12.2 3.52V19.81C12.22 20.33 12.41 20.78 12.77 21.16C13.15 21.52 13.6 21.7 14.12 21.7ZM40.1916 1.3C39.6916 1.3 39.2616 1.48 38.9016 1.84C38.5416 2.18 38.3516 2.6 38.3316 3.1V18.58C38.3316 19.92 38.4216 21.05 38.6016 21.97L38.6916 22.42H38.4216L23.2716 7.99V19.9C23.2716 20.4 23.4516 20.83 23.8116 21.19C24.1716 21.53 24.6016 21.7 25.1016 21.7H25.6716V22H16.5816V21.7H17.1216C17.6416 21.7 18.0816 21.53 18.4416 21.19C18.8016 20.83 18.9816 20.39 18.9816 19.87V4.3C18.9816 2.98 18.8916 1.88 18.7116 0.999999L18.6516 0.549999H18.9216L34.0716 14.98V3.13C34.0516 2.61 33.8616 2.18 33.5016 1.84C33.1416 1.48 32.7116 1.3 32.2116 1.3H31.6716V0.999999H40.7616V1.3H40.1916ZM49.2399 2.29V11.02H53.1999C53.9399 11 54.5499 10.75 55.0299 10.27C55.5099 9.79 55.7499 9.18 55.7499 8.44V8.17H56.0499V15.1H55.7499V14.86C55.7499 14.12 55.5099 13.51 55.0299 13.03C54.5699 12.55 53.9699 12.3 53.2299 12.28H49.2399V19.81C49.2399 20.55 49.5599 21.1 50.1999 21.46C50.4999 21.62 50.8199 21.7 51.1599 21.7H51.5199L51.5499 22H42.4299V21.7H42.8199C43.3399 21.7 43.7799 21.52 44.1399 21.16C44.5199 20.78 44.7199 20.33 44.7399 19.81V3.1C44.6999 2.6 44.4899 2.18 44.1099 1.84C43.7499 1.48 43.3199 1.3 42.8199 1.3H42.4299V0.999999H53.9199C54.8999 0.999999 55.7099 0.929999 56.3499 0.789999C56.9899 0.629999 57.3799 0.519999 57.5199 0.459998V5.53H57.2199V5.23C57.2199 4.35 56.9599 3.65 56.4399 3.13C55.9399 2.59 55.2499 2.31 54.3699 2.29H49.2399ZM71.9773 0.579999C75.6773 0.579999 78.6173 1.56 80.7973 3.52C82.9773 5.48 84.0673 8.14 84.0673 11.5C84.0673 14.86 82.9773 17.52 80.7973 19.48C78.6173 21.44 75.6773 22.42 71.9773 22.42C68.2773 22.42 65.3373 21.44 63.1573 19.48C60.9773 17.52 59.8873 14.86 59.8873 11.5C59.8873 9.28 60.3773 7.35 61.3573 5.71C62.3573 4.05 63.7673 2.78 65.5873 1.9C67.4073 1.02 69.5373 0.579999 71.9773 0.579999ZM66.7273 18.58C68.0273 20.3 69.7773 21.16 71.9773 21.16C74.1773 21.16 75.9173 20.3 77.1973 18.58C78.4973 16.84 79.1473 14.48 79.1473 11.5C79.1473 9.54 78.8573 7.83 78.2773 6.37C77.6973 4.91 76.8673 3.79 75.7873 3.01C74.7073 2.23 73.4373 1.84 71.9773 1.84C69.7773 1.84 68.0273 2.71 66.7273 4.45C65.4473 6.17 64.8073 8.52 64.8073 11.5C64.8073 14.48 65.4473 16.84 66.7273 18.58ZM94.4117 21.7C94.9317 21.7 95.3717 21.52 95.7317 21.16C96.1117 20.78 96.3117 20.33 96.3317 19.81V3.16C96.3117 2.44 95.9817 1.9 95.3417 1.54C95.0617 1.38 94.7517 1.3 94.4117 1.3H94.0217V0.999999H103.142L103.112 1.3H102.752C102.032 1.3 101.482 1.61 101.102 2.23C100.922 2.51 100.832 2.82 100.832 3.16V19.81C100.832 20.33 101.022 20.78 101.402 21.16C101.782 21.52 102.232 21.7 102.752 21.7H103.112L103.142 22H94.0217V21.7H94.4117ZM116.072 22H113.612C110.572 22 108.422 21.17 107.162 19.51C103.582 14.65 101.792 12.18 101.792 12.1L108.902 2.68C109.062 2.48 109.142 2.3 109.142 2.14C109.142 1.98 109.112 1.84 109.052 1.72C108.892 1.42 108.612 1.27 108.212 1.27H107.912V0.999999H114.782V1.27H114.662C113.322 1.27 112.232 1.75 111.392 2.71L105.542 9.64L113.012 19.84C113.932 21.04 114.952 21.66 116.072 21.7V22ZM137.578 21.7H137.848V22H128.278V21.7H128.548C128.988 21.7 129.308 21.57 129.508 21.31C129.728 21.03 129.838 20.77 129.838 20.53C129.838 20.29 129.788 20.05 129.688 19.81L128.218 16.12H121.198L119.638 19.81C119.538 20.07 119.488 20.32 119.488 20.56C119.488 20.78 119.588 21.03 119.788 21.31C120.008 21.57 120.348 21.7 120.808 21.7H121.048V22H114.627V21.7H114.897C115.357 21.7 115.818 21.56 116.278 21.28C116.738 21 117.118 20.58 117.417 20.02L124.348 4.33C125.288 2.35 125.788 1.04 125.848 0.399999H126.118L135.028 19.96C135.328 20.54 135.708 20.98 136.168 21.28C136.628 21.56 137.098 21.7 137.578 21.7ZM121.708 14.86H127.708L124.798 7.48L121.708 14.86ZM146.992 1.3C146.472 1.3 146.022 1.49 145.642 1.87C145.282 2.23 145.092 2.67 145.072 3.19V21.1C145.072 22.52 144.692 23.79 143.932 24.91C143.172 26.03 142.242 26.83 141.142 27.31C140.042 27.79 138.942 28.03 137.842 28.03C137.582 28.03 137.322 28.02 137.062 28V27.73C138.262 27.23 139.142 26.36 139.702 25.12C140.282 23.9 140.572 22.53 140.572 21.01V3.19C140.552 2.45 140.232 1.9 139.612 1.54C139.312 1.38 138.992 1.3 138.652 1.3H138.262V0.999999H147.382V1.3H146.992ZM150.076 21.7C150.596 21.7 151.036 21.52 151.396 21.16C151.776 20.78 151.976 20.33 151.996 19.81V3.16C151.976 2.64 151.776 2.2 151.396 1.84C151.036 1.48 150.596 1.3 150.076 1.3H149.686V0.999999H158.806L158.776 1.3H158.416C157.896 1.3 157.446 1.48 157.066 1.84C156.686 2.2 156.496 2.64 156.496 3.16V19.81C156.496 20.33 156.686 20.78 157.066 21.16C157.446 21.52 157.896 21.7 158.416 21.7H158.776L158.806 22H149.686V21.7H150.076ZM181.611 21.7H181.881V22H172.311V21.7H172.581C173.021 21.7 173.341 21.57 173.541 21.31C173.761 21.03 173.871 20.77 173.871 20.53C173.871 20.29 173.821 20.05 173.721 19.81L172.251 16.12H165.231L163.671 19.81C163.571 20.07 163.521 20.32 163.521 20.56C163.521 20.78 163.621 21.03 163.821 21.31C164.041 21.57 164.381 21.7 164.841 21.7H165.081V22H158.661V21.7H158.931C159.391 21.7 159.851 21.56 160.311 21.28C160.771 21 161.151 20.58 161.451 20.02L168.381 4.33C169.321 2.35 169.821 1.04 169.881 0.399999H170.151L179.061 19.96C179.361 20.54 179.741 20.98 180.201 21.28C180.661 21.56 181.131 21.7 181.611 21.7ZM165.741 14.86H171.741L168.831 7.48L165.741 14.86ZM205.455 1.3C204.955 1.3 204.525 1.48 204.165 1.84C203.805 2.18 203.615 2.6 203.595 3.1V18.58C203.595 19.92 203.685 21.05 203.865 21.97L203.955 22.42H203.685L188.535 7.99V19.9C188.535 20.4 188.715 20.83 189.075 21.19C189.435 21.53 189.865 21.7 190.365 21.7H190.935V22H181.845V21.7H182.385C182.905 21.7 183.345 21.53 183.705 21.19C184.065 20.83 184.245 20.39 184.245 19.87V4.3C184.245 2.98 184.155 1.88 183.975 0.999999L183.915 0.549999H184.185L199.335 14.98V3.13C199.315 2.61 199.125 2.18 198.765 1.84C198.405 1.48 197.975 1.3 197.475 1.3H196.935V0.999999H206.025V1.3H205.455ZM224.482 1.3C223.962 1.3 223.512 1.49 223.132 1.87C222.772 2.23 222.582 2.67 222.562 3.19V21.1C222.562 22.52 222.182 23.79 221.422 24.91C220.662 26.03 219.732 26.83 218.632 27.31C217.532 27.79 216.432 28.03 215.332 28.03C215.072 28.03 214.812 28.02 214.552 28V27.73C215.752 27.23 216.632 26.36 217.192 25.12C217.772 23.9 218.062 22.53 218.062 21.01V3.19C218.042 2.45 217.722 1.9 217.102 1.54C216.802 1.38 216.482 1.3 216.142 1.3H215.752V0.999999H224.872V1.3H224.482ZM238.442 0.579999C242.142 0.579999 245.082 1.56 247.262 3.52C249.442 5.48 250.532 8.14 250.532 11.5C250.532 14.86 249.442 17.52 247.262 19.48C245.082 21.44 242.142 22.42 238.442 22.42C234.742 22.42 231.802 21.44 229.622 19.48C227.442 17.52 226.352 14.86 226.352 11.5C226.352 9.28 226.842 7.35 227.822 5.71C228.822 4.05 230.232 2.78 232.052 1.9C233.872 1.02 236.002 0.579999 238.442 0.579999ZM233.192 18.58C234.492 20.3 236.242 21.16 238.442 21.16C240.642 21.16 242.382 20.3 243.662 18.58C244.962 16.84 245.612 14.48 245.612 11.5C245.612 9.54 245.322 7.83 244.742 6.37C244.162 4.91 243.332 3.79 242.252 3.01C241.172 2.23 239.902 1.84 238.442 1.84C236.242 1.84 234.492 2.71 233.192 4.45C231.912 6.17 231.272 8.52 231.272 11.5C231.272 14.48 231.912 16.84 233.192 18.58ZM276.472 12.25H276.022C275.542 12.25 275.172 12.37 274.912 12.61C274.652 12.83 274.522 13.16 274.522 13.6V18.55C273.742 19.57 272.452 20.47 270.652 21.25C268.852 22.03 266.832 22.42 264.592 22.42C261.172 22.42 258.422 21.44 256.342 19.48C254.282 17.5 253.252 14.84 253.252 11.5C253.252 8.14 254.282 5.48 256.342 3.52C258.422 1.56 261.232 0.579999 264.772 0.579999C266.372 0.579999 267.922 0.739999 269.422 1.06C270.922 1.36 272.132 1.74 273.052 2.2L273.112 7.36H272.842C272.322 5.42 271.432 4.02 270.172 3.16C268.912 2.28 267.412 1.84 265.672 1.84C263.252 1.84 261.392 2.71 260.092 4.45C258.792 6.17 258.142 8.54 258.142 11.56C258.142 14.56 258.732 16.91 259.912 18.61C261.112 20.31 262.802 21.16 264.982 21.16C266.562 21.16 267.882 20.71 268.942 19.81C269.462 19.35 269.842 18.81 270.082 18.19V13.6C270.082 13.16 269.942 12.83 269.662 12.61C269.402 12.37 269.022 12.25 268.522 12.25H268.042V11.95H276.472V12.25ZM287.06 1.3C286.54 1.3 286.09 1.49 285.71 1.87C285.35 2.23 285.16 2.67 285.14 3.19V21.1C285.14 22.52 284.76 23.79 284 24.91C283.24 26.03 282.31 26.83 281.21 27.31C280.11 27.79 279.01 28.03 277.91 28.03C277.65 28.03 277.39 28.02 277.13 28V27.73C278.33 27.23 279.21 26.36 279.77 25.12C280.35 23.9 280.64 22.53 280.64 21.01V3.19C280.62 2.45 280.3 1.9 279.68 1.54C279.38 1.38 279.06 1.3 278.72 1.3H278.33V0.999999H287.45V1.3H287.06ZM310.107 21.7H310.377V22H300.807V21.7H301.077C301.517 21.7 301.837 21.57 302.037 21.31C302.257 21.03 302.367 20.77 302.367 20.53C302.367 20.29 302.317 20.05 302.217 19.81L300.747 16.12H293.727L292.167 19.81C292.067 20.07 292.017 20.32 292.017 20.56C292.017 20.78 292.117 21.03 292.317 21.31C292.537 21.57 292.877 21.7 293.337 21.7H293.577V22H287.157V21.7H287.427C287.887 21.7 288.347 21.56 288.807 21.28C289.267 21 289.647 20.58 289.947 20.02L296.877 4.33C297.817 2.35 298.317 1.04 298.377 0.399999H298.647L307.557 19.96C307.857 20.54 308.237 20.98 308.697 21.28C309.157 21.56 309.627 21.7 310.107 21.7ZM294.237 14.86H300.237L297.327 7.48L294.237 14.86Z" fill="white"/>
</svg>
