<svg width="359" height="189" viewBox="0 0 359 189" fill="none" xmlns="http://www.w3.org/2000/svg">
<path d="M1.28 68.04C2.944 68.04 4.352 67.464 5.504 66.312C6.72 65.096 7.36 63.656 7.424 61.992V8.712C7.36 7.048 6.72 5.64 5.504 4.488C4.352 3.33599 2.944 2.75999 1.28 2.75999H0.0320003V1.8H29.216L29.12 2.75999H27.968C26.304 2.75999 24.864 3.33599 23.648 4.488C22.432 5.64 21.824 7.048 21.824 8.712V61.992C21.824 63.656 22.432 65.096 23.648 66.312C24.864 67.464 26.304 68.04 27.968 68.04H29.12L29.216 69H0.0320003V68.04H1.28ZM111.463 2.75999C109.863 2.75999 108.487 3.33599 107.335 4.488C106.183 5.576 105.575 6.92 105.511 8.51999V58.056C105.511 62.344 105.799 65.96 106.375 68.904L106.663 70.344H105.799L57.3193 24.168V62.28C57.3193 63.88 57.8953 65.256 59.0473 66.408C60.1993 67.496 61.5753 68.04 63.1753 68.04H64.9993V69H35.9113V68.04H37.6393C39.3033 68.04 40.7113 67.496 41.8633 66.408C43.0153 65.256 43.5913 63.848 43.5913 62.184V12.36C43.5913 8.136 43.3033 4.616 42.7273 1.8L42.5353 0.359997H43.3993L91.8793 46.536V8.616C91.8153 6.952 91.2073 5.576 90.0553 4.488C88.9033 3.33599 87.5273 2.75999 85.9272 2.75999H84.1993V1.8H113.287V2.75999H111.463ZM140.418 5.928V33.864H153.09C155.458 33.8 157.41 33 158.946 31.464C160.482 29.928 161.25 27.976 161.25 25.608V24.744H162.21V46.92H161.25V46.152C161.25 43.784 160.482 41.832 158.946 40.296C157.474 38.76 155.554 37.96 153.186 37.896H140.418V61.992C140.418 64.36 141.442 66.12 143.49 67.272C144.45 67.784 145.474 68.04 146.562 68.04H147.714L147.81 69H118.626V68.04H119.874C121.538 68.04 122.946 67.464 124.098 66.312C125.314 65.096 125.954 63.656 126.018 61.992V8.51999C125.89 6.92 125.218 5.576 124.002 4.488C122.85 3.33599 121.474 2.75999 119.874 2.75999H118.626V1.8H155.394C158.53 1.8 161.122 1.576 163.17 1.128C165.218 0.615997 166.466 0.263996 166.914 0.0719948V16.296H165.954V15.336C165.954 12.52 165.122 10.28 163.458 8.616C161.858 6.888 159.65 5.992 156.834 5.928H140.418ZM213.178 0.455996C225.018 0.455996 234.426 3.592 241.402 9.86399C248.378 16.136 251.866 24.648 251.866 35.4C251.866 46.152 248.378 54.664 241.402 60.936C234.426 67.208 225.018 70.344 213.178 70.344C201.338 70.344 191.93 67.208 184.954 60.936C177.978 54.664 174.49 46.152 174.49 35.4C174.49 28.296 176.058 22.12 179.194 16.872C182.394 11.56 186.906 7.496 192.73 4.68C198.554 1.864 205.37 0.455996 213.178 0.455996ZM196.378 58.056C200.538 63.56 206.138 66.312 213.178 66.312C220.218 66.312 225.786 63.56 229.882 58.056C234.042 52.488 236.122 44.936 236.122 35.4C236.122 29.128 235.194 23.656 233.338 18.984C231.482 14.312 228.826 10.728 225.37 8.232C221.914 5.736 217.85 4.488 213.178 4.488C206.138 4.488 200.538 7.272 196.378 12.84C192.282 18.344 190.234 25.864 190.234 35.4C190.234 44.936 192.282 52.488 196.378 58.056ZM1.28 168.04C2.944 168.04 4.352 167.464 5.504 166.312C6.72 165.096 7.36 163.656 7.424 161.992V108.712C7.36 106.408 6.304 104.68 4.256 103.528C3.36 103.016 2.368 102.76 1.28 102.76H0.0320003V101.8H29.216L29.12 102.76H27.968C25.664 102.76 23.904 103.752 22.688 105.736C22.112 106.632 21.824 107.624 21.824 108.712V161.992C21.824 163.656 22.432 165.096 23.648 166.312C24.864 167.464 26.304 168.04 27.968 168.04H29.12L29.216 169H0.0320003V168.04H1.28ZM70.592 169H62.72C52.992 169 46.112 166.344 42.08 161.032C30.624 145.48 24.896 137.576 24.896 137.32L47.648 107.176C48.16 106.536 48.416 105.96 48.416 105.448C48.416 104.936 48.32 104.488 48.128 104.104C47.616 103.144 46.72 102.664 45.44 102.664H44.48V101.8H66.464V102.664H66.08C61.792 102.664 58.304 104.2 55.616 107.272L36.896 129.448L60.8 162.088C63.744 165.928 67.008 167.912 70.592 168.04V169ZM139.411 168.04H140.275V169H109.651V168.04H110.515C111.923 168.04 112.947 167.624 113.587 166.792C114.291 165.896 114.643 165.064 114.643 164.296C114.643 163.528 114.483 162.76 114.163 161.992L109.459 150.184H86.9945L82.0025 161.992C81.6825 162.824 81.5225 163.624 81.5225 164.392C81.5225 165.096 81.8425 165.896 82.4825 166.792C83.1865 167.624 84.2745 168.04 85.7465 168.04H86.5145V169H65.9705V168.04H66.8345C68.3065 168.04 69.7785 167.592 71.2505 166.696C72.7225 165.8 73.9385 164.456 74.8985 162.664L97.0745 112.456C100.083 106.12 101.683 101.928 101.875 99.88H102.739L131.251 162.472C132.211 164.328 133.427 165.736 134.899 166.696C136.371 167.592 137.875 168.04 139.411 168.04ZM88.6265 146.152H107.827L98.5145 122.536L88.6265 146.152ZM169.537 102.76C167.873 102.76 166.433 103.368 165.217 104.584C164.065 105.736 163.457 107.144 163.393 108.808V166.12C163.393 170.664 162.177 174.728 159.745 178.312C157.313 181.896 154.337 184.456 150.817 185.992C147.297 187.528 143.777 188.296 140.257 188.296C139.425 188.296 138.593 188.264 137.761 188.2V187.336C141.601 185.736 144.417 182.952 146.209 178.984C148.065 175.08 148.993 170.696 148.993 165.832V108.808C148.929 106.44 147.905 104.68 145.921 103.528C144.961 103.016 143.937 102.76 142.849 102.76H141.601V101.8H170.785V102.76H169.537ZM179.405 168.04C181.069 168.04 182.477 167.464 183.629 166.312C184.845 165.096 185.485 163.656 185.549 161.992V108.712C185.485 107.048 184.845 105.64 183.629 104.488C182.477 103.336 181.069 102.76 179.405 102.76H178.157V101.8H207.341L207.245 102.76H206.093C204.429 102.76 202.989 103.336 201.773 104.488C200.557 105.64 199.949 107.048 199.949 108.712V161.992C199.949 163.656 200.557 165.096 201.773 166.312C202.989 167.464 204.429 168.04 206.093 168.04H207.245L207.341 169H178.157V168.04H179.405ZM280.317 168.04H281.181V169H250.557V168.04H251.421C252.829 168.04 253.853 167.624 254.493 166.792C255.197 165.896 255.549 165.064 255.549 164.296C255.549 163.528 255.389 162.76 255.069 161.992L250.365 150.184H227.901L222.909 161.992C222.589 162.824 222.429 163.624 222.429 164.392C222.429 165.096 222.749 165.896 223.389 166.792C224.093 167.624 225.181 168.04 226.653 168.04H227.421V169H206.877V168.04H207.741C209.213 168.04 210.685 167.592 212.157 166.696C213.629 165.8 214.845 164.456 215.805 162.664L237.981 112.456C240.989 106.12 242.589 101.928 242.781 99.88H243.645L272.157 162.472C273.117 164.328 274.333 165.736 275.805 166.696C277.277 167.592 278.781 168.04 280.317 168.04ZM229.533 146.152H248.733L239.421 122.536L229.533 146.152ZM356.62 102.76C355.02 102.76 353.644 103.336 352.492 104.488C351.34 105.576 350.732 106.92 350.668 108.52V158.056C350.668 162.344 350.956 165.96 351.532 168.904L351.82 170.344H350.956L302.476 124.168V162.28C302.476 163.88 303.052 165.256 304.204 166.408C305.356 167.496 306.732 168.04 308.332 168.04H310.156V169H281.068V168.04H282.796C284.46 168.04 285.868 167.496 287.02 166.408C288.172 165.256 288.748 163.848 288.748 162.184V112.36C288.748 108.136 288.46 104.616 287.884 101.8L287.692 100.36H288.556L337.036 146.536V108.616C336.972 106.952 336.364 105.576 335.212 104.488C334.06 103.336 332.684 102.76 331.083 102.76H329.356V101.8H358.444V102.76H356.62Z" fill="#FEC200"/>
</svg>
